<svg xmlns="http://www.w3.org/2000/svg" width="200" height="38" preserveAspectRatio="xMidYMid"><g fill="#999"><path d="M25.966 3.819c-1.007-.559-3.892-.213-7.357.86-6.065 4.145-11.184 10.252-11.54 20.06-.066.235-.664-.032-.782-.104-1.638-3.14-2.287-6.445-.92-11.213.255-.424-.578-.947-.728-.798-.3.301-1.551 1.634-2.382 3.076-4.12 7.146-1.426 16.302 5.781 20.31 7.206 4.013 16.305 1.424 20.317-5.784 4.642-8.32.332-24.887-2.389-26.407zM51.758 7.812c-8.543 0-14.745 6.351-14.745 15.103 0 8.823 6.186 14.985 15.043 14.985 4.474 0 8.016-1.399 10.833-4.279.842-.908.932-1.784.932-2.118 0-1.427-1.06-2.463-2.523-2.463-.736 0-1.353.278-2.06.932-1.595 1.486-3.695 3.004-7.182 3.004-4.848 0-8.791-3.64-9.04-8.314h19.297c2.098 0 3.118-.981 3.118-2.999 0-.594 0-1.022-.12-1.868-1.04-7.503-6.105-11.982-13.552-11.982zm0 4.685c4.633 0 7.606 2.952 7.79 7.717H43.021c.434-4.41 4.163-7.717 8.736-7.717zM83.857 7.812c-3.881 0-7.724 2.231-9.225 5.33v-1.915c0-2.967-2.3-3.118-2.76-3.118-1.364 0-2.82.82-2.82 3.118v23.136c0 3.082 2.448 3.238 2.939 3.238.49 0 2.94-.156 2.94-3.238V21.961c0-5.397 3.057-9.166 7.435-9.166 4.24 0 6.303 2.783 6.303 8.509v13.06c0 3.08 2.45 3.237 2.94 3.237.49 0 2.938-.156 2.938-3.238V19.458c0-5.63-2.808-11.645-10.69-11.645zM121.144 8.11c-1.358 0-2.343.792-2.93 2.351l-8.042 20.223-7.981-20.223c-.625-1.582-1.603-2.351-2.99-2.351-1.62 0-2.94 1.265-2.94 2.82 0 .384.044.883.37 1.662l9.242 21.823c1.101 2.633 2.913 3.185 4.24 3.185 1.325 0 3.137-.552 4.24-3.183l9.303-21.945c.318-.77.367-1.335.367-1.602 0-1.573-1.239-2.76-2.879-2.76zM138.23 7.812c-3.759 0-7.26 1.047-9.858 2.946-.88.607-1.309 1.365-1.309 2.319 0 1.312 1.002 2.341 2.284 2.341.554 0 1.175-.22 1.744-.62 2.233-1.488 4.331-2.182 6.603-2.182 4.346 0 6.84 2.21 6.84 6.065v.639c-9.756.01-19.679 1.189-19.679 9.676 0 6.109 5.22 8.843 10.394 8.843 4.12 0 7.41-1.632 9.522-4.723v1.486c0 2.214 1.486 2.999 2.761 2.999.269 0 2.64-.085 2.64-2.999V19.038c0-7.031-4.465-11.228-11.942-11.228zm5.068 15.836h1.237v1.354c0 4.952-3.154 8.152-8.033 8.152-1.325 0-5.647-.308-5.647-4.278 0-4.687 7.1-5.228 12.443-5.228zM165.483 13.45c2.572 0 2.702-2 2.702-2.401 0-1.19-.71-2.462-2.702-2.462h-5.289v-5.35c0-2.39-1.55-3.237-2.878-3.237-.491 0-2.94.156-2.94 3.237V28.64c0 5.862 2.893 8.96 8.365 8.96 1.416 0 2.795-.25 3.697-.67 1.035-.516 1.628-1.365 1.628-2.328 0-1.358-.986-2.344-2.344-2.344-.263 0-.636.066-1.047.184-.503.126-.845.175-1.218.175-2.226 0-3.263-1.454-3.263-4.575V13.448h5.289zM184.918 7.812c-8.89 0-15.34 6.301-15.34 14.983 0 4.226 1.563 8.079 4.4 10.846 2.814 2.746 6.7 4.258 10.94 4.258 8.78 0 15.402-6.493 15.402-15.104 0-8.682-6.479-14.983-15.401-14.983zm0 25.103c-6.096 0-9.285-5.091-9.285-10.121 0-6.912 4.814-10.06 9.285-10.06 4.472 0 9.285 3.148 9.285 10.06 0 6.954-4.813 10.121-9.285 10.121z"/></g></svg>